# xmcd CD database file
# Copyright (C) 1997 Ti Kan
#
# Track frame offsets:
#  150
#  15758
#  29800
#  46063
#  59470
#  75200
#  89365
#  104380
#  120435
#  136228
#  148755
#  161930
#  176460
#  192100
#  206818
#  222698
#  237068
#  251758
#  266738
#  279950
#
# Disc length: 3920 seconds
#
# Revision: 1
# Processed by: cddbd v1.4b41PL1 Copyright (c) Steve Scherf et al.
# Submitted via: CDWizzard Release:4.30
#
DISCID=1b0f4e14
DTITLE=Bessie Smith - Beale Street Mama
DYEAR=1900
DGENRE=
TTITLE0=Down Hearted Blues
TTITLE1=Gulf Coast Blues
TTITLE2=Beale Street Mama
TTITLE3=Baby, Won't You Please Come Home
TTITLE4='Tain't Nobody's Business If I Do
TTITLE5=Bleedin' Hearted Blues
TTITLE6=Midnight Blues
TTITLE7=Nobody in Town Can Bake a Sweet Jelly Roll Like Mine
TTITLE8=St Louis Gal
TTITLE9=Graveyard Dream Blues
TTITLE10=I'm Going Back to My Used to Be
TTITLE11=My Sweetie Went Away
TTITLE12=Any Woman's Blues
TTITLE13=Frosty Morning Blues
TTITLE14=Haunted House Blues
TTITLE15=Easy Come, Easy Go Blues
TTITLE16=Rocking Chair Blues
TTITLE17=Sorrowful Blues
TTITLE18=Boweavil Blues
TTITLE19=Hateful Blues
EXTD=
EXTT0=
EXTT1=
EXTT2=
EXTT3=
EXTT4=
EXTT5=
EXTT6=
EXTT7=
EXTT8=
EXTT9=
EXTT10=
EXTT11=
EXTT12=
EXTT13=
EXTT14=
EXTT15=
EXTT16=
EXTT17=
EXTT18=
EXTT19=
PLAYORDER=
